<svg width="37" height="470" viewBox="0 0 37 470" fill="none" xmlns="http://www.w3.org/2000/svg">
<path d="M18.5 0C28.7172 0 36.9999 8.2828 37 18.5C37 27.3437 30.7942 34.7361 22.5 36.5645V193.26C22.5 194.023 22.2551 194.728 21.8408 195.303C30.4632 196.879 36.9999 204.445 37 213.543C36.9998 222.859 30.1448 230.57 21.2148 231.887C21.9995 232.529 22.5 233.505 22.5 234.598V432.403C22.5 432.414 22.4991 432.425 22.499 432.436C30.7937 434.268 36.9999 441.678 37 450.543C36.9998 460.784 28.7171 469.087 18.5 469.087C8.28285 469.087 0.000193121 460.784 0 450.543C0.00012449 441.326 6.70962 433.681 15.5 432.244V234.598C15.5 233.565 15.9474 232.636 16.6592 231.995C7.3063 231.069 0.000181377 223.161 0 213.543C0.000127128 204.131 6.99686 196.357 16.0615 195.16C15.7068 194.613 15.5 193.961 15.5 193.26V36.7559C6.70958 35.3223 0 27.6957 0 18.5C8.24642e-05 8.2828 8.28278 0 18.5 0ZM18.5 439.017C12.1488 439.017 7.00014 444.177 7 450.543C7.00019 456.909 12.1488 462.07 18.5 462.07C24.8512 462.07 29.9998 456.909 30 450.543C29.9999 444.177 24.8512 439.017 18.5 439.017ZM18.5 202.017C12.1488 202.017 7.00014 207.177 7 213.543C7.00019 219.909 12.1488 225.07 18.5 225.07C24.8512 225.07 29.9998 219.909 30 213.543C29.9999 207.177 24.8512 202.017 18.5 202.017ZM18.5 207C22.0899 207 25 209.91 25 213.5C25 217.09 22.0899 220 18.5 220C14.9101 220 12 217.09 12 213.5C12 209.91 14.9101 207 18.5 207ZM18.5 7C12.1488 7 7.00008 12.1488 7 18.5C7 24.8513 12.1487 30 18.5 30C24.8513 30 30 24.8513 30 18.5C29.9999 12.1488 24.8512 7 18.5 7ZM18.5 12C22.0899 12 25 14.9101 25 18.5C25 22.0899 22.0899 25 18.5 25C14.9101 25 12 22.0899 12 18.5C12 14.9101 14.9101 12 18.5 12Z" fill="url(#paint0_linear_423_41)"/>
<circle cx="18.5" cy="450.5" r="6.5" fill="url(#paint1_linear_423_41)"/>
<defs>
<linearGradient id="paint0_linear_423_41" x1="0" y1="234.543" x2="37" y2="234.543" gradientUnits="userSpaceOnUse">
<stop stop-color="#A1642E"/>
<stop offset="0.5" stop-color="#DDA940"/>
<stop offset="1" stop-color="#A1642E"/>
</linearGradient>
<linearGradient id="paint1_linear_423_41" x1="12" y1="450.5" x2="25" y2="450.5" gradientUnits="userSpaceOnUse">
<stop stop-color="#A1642E"/>
<stop offset="0.5" stop-color="#DDA940"/>
<stop offset="1" stop-color="#A1642E"/>
</linearGradient>
</defs>
</svg>
